<?xml version="1.0" ?><svg height="24px" version="1.1" viewBox="0 0 24 24" width="24px" xmlns="http://www.w3.org/2000/svg" xmlns:xlink="http://www.w3.org/1999/xlink"><title/><desc/><g fill="none" fill-rule="evenodd" id="Social-/-18---Social,-blog,-feed,-news,-paper,-website-icon" stroke="none" stroke-linecap="round" stroke-linejoin="round" stroke-width="1"><path d="M2,19.98 L2,1.92 C2,1.68804041 2.18804041,1.5 2.42,1.5 L21.58,1.5 C21.8119596,1.5 22,1.68804041 22,1.92 L22,19.98 C22,21.3717576 20.8717576,22.5 19.48,22.5 L4.52,22.5 C3.12824243,22.5 2,21.3717576 2,19.98 Z" id="Path" stroke="#000000" stroke-width="2"/><path d="M6.4,5.5 C6.1790861,5.5 6,5.6790861 6,5.9 L6,10 L18,10 L18,5.9 C18,5.6790861 17.8209139,5.5 17.6,5.5 L6.4,5.5 Z" id="Path" stroke="#000000" stroke-width="2"/><line id="Path" stroke="#000000" stroke-width="2" x1="6" x2="12" y1="14" y2="14"/></g></svg>